<svg width="260" height="81" viewBox="0 0 260 81" fill="none" xmlns="http://www.w3.org/2000/svg">

<g clip-path="url(#clip0_2057_72)" fill="none">
  <!-- Figure 1 -->
  <path id="figure1" fill-rule="evenodd" clip-rule="evenodd" d="M77.8068 51.4569C75.3711 50.8309 73.2681 49.4457 71.7314 47.5852C70.0307 45.5269 69.0228 42.8873 69.0228 40.049C69.0228 36.7969 70.3296 33.8521 72.4422 31.7215C74.554 29.59 77.4731 28.2716 80.6964 28.2716C83.9196 28.2716 86.8384 29.59 88.9503 31.7215C91.0629 33.8521 92.3696 36.7969 92.3696 40.049C92.3696 40.7315 92.3069 41.4269 92.1827 42.1254C92.1164 42.4996 92.0334 42.8681 91.9335 43.229L92.0174 43.3106C92.5533 43.8512 92.8853 44.5986 92.8853 45.4233C92.8853 46.2481 92.5533 46.9956 92.0174 47.5361C91.4817 48.0767 90.7407 48.4116 89.9231 48.4116C89.1057 48.4116 88.3647 48.0767 87.829 47.5361C87.2931 46.9956 86.9611 46.2481 86.9611 45.4233C86.9611 44.5986 87.2931 43.8512 87.829 43.3106C88.3647 42.7701 89.1057 42.4352 89.9231 42.4352L90.0388 42.4373C90.0957 42.213 90.1442 41.9884 90.1842 41.7639C90.2819 41.2138 90.3314 40.6395 90.3314 40.049C90.3314 37.364 89.2528 34.9335 87.5095 33.1749C85.7661 31.416 83.3571 30.328 80.6962 30.328C78.0352 30.328 75.6258 31.416 73.8826 33.1749C72.1393 34.9337 71.0607 37.364 71.0607 40.049C71.0607 42.3995 71.8911 44.58 73.2916 46.2759C74.5099 47.7502 76.1612 48.8625 78.0743 49.4068C78.2135 49.14 78.392 48.8963 78.6017 48.685C79.1376 48.1444 79.8784 47.8095 80.696 47.8095C81.5137 47.8095 82.2541 48.1444 82.7904 48.685C83.3261 49.2257 83.6577 49.973 83.6577 50.7978C83.6577 51.6225 83.3261 52.37 82.7904 52.9105C82.2541 53.4512 81.5137 53.786 80.696 53.786C79.8784 53.786 79.1376 53.4512 78.6017 52.9105C78.2126 52.5184 77.9314 52.0173 77.8062 51.4568L77.8068 51.4569Z"/>
  
  <!-- Figure 2 -->
  <path id="figure2" fill-rule="evenodd" clip-rule="evenodd" d="M108.045 64.6527C108.863 64.6527 109.604 64.987 110.14 65.5281C110.676 66.0687 111.007 66.8161 111.007 67.641C111.007 68.4657 110.676 69.2127 110.14 69.7537C109.604 70.2944 108.863 70.6288 108.045 70.6288C107.562 70.6288 107.105 70.5115 106.702 70.3042C103.199 73.3688 99.2114 75.7688 94.9371 77.4268C90.4226 79.1774 85.5987 80.0977 80.6964 80.0977C69.7347 80.0977 59.8098 75.6146 52.6268 68.3679C45.4432 61.1205 40.9998 51.1076 40.9998 40.049C40.9998 28.9896 45.4432 18.977 52.6268 11.7302C59.8098 4.48289 69.7347 0 80.6964 0C91.0987 0 100.621 4.054 107.731 10.7258C114.63 17.1997 119.256 26.1416 120.21 36.2346C120.687 36.3782 121.114 36.6394 121.457 36.9855C121.993 37.5261 122.324 38.2735 122.324 39.0982C122.324 39.9231 121.993 40.6705 121.457 41.2111C120.921 41.7516 120.18 42.0865 119.362 42.0865C118.545 42.0865 117.804 41.7516 117.268 41.2111C116.732 40.6705 116.401 39.9231 116.401 39.0982C116.401 38.2735 116.732 37.5261 117.268 36.9855C117.528 36.723 117.836 36.5095 118.178 36.3592C117.259 26.8117 112.875 18.3552 106.345 12.2276C99.6029 5.90044 90.569 2.05626 80.6964 2.05626C70.2972 2.05626 60.882 6.30892 54.0674 13.1834C47.2531 20.0585 43.0381 29.5569 43.0381 40.049C43.0381 50.5407 47.2531 60.0391 54.0674 66.9141C60.882 73.7886 70.2972 78.0413 80.6964 78.0413C85.3647 78.0413 89.9428 77.1714 94.2125 75.5153C98.2344 73.9553 101.997 71.6931 105.315 68.8002C105.166 68.4437 105.083 68.052 105.083 67.6406C105.083 66.8158 105.415 66.0683 105.951 65.5278C106.487 64.9868 107.228 64.6523 108.045 64.6523V64.6527ZM108.699 66.9815C108.532 66.8131 108.3 66.7091 108.045 66.7091C107.79 66.7091 107.559 66.8133 107.392 66.9815C107.225 67.1497 107.122 67.3832 107.122 67.641C107.122 67.8982 107.225 68.1315 107.392 68.2997C107.559 68.4681 107.79 68.572 108.045 68.572C108.3 68.572 108.532 68.4681 108.699 68.2997C108.866 68.1313 108.969 67.8982 108.969 67.641C108.969 67.3832 108.866 67.1497 108.699 66.9815Z"/>
  
  <!-- Figure 3 -->
  <path id="figure3" fill-rule="evenodd" clip-rule="evenodd" d="M51.4274 89.1786C51.0592 88.8174 50.842 88.3067 50.842 87.7636C50.842 87.2203 51.0592 86.7098 51.4274 86.3485C51.7955 85.9872 52.2864 85.8045 52.7938 85.8045C53.301 85.8045 53.7919 85.9872 54.1601 86.3485C54.5282 86.7098 54.7455 87.2203 54.7455 87.7636C54.7455 88.3067 54.5282 88.8174 54.1601 89.1786C53.7919 89.5401 53.301 89.7228 52.7938 89.7228C52.2864 89.7228 51.7955 89.5401 51.4274 89.1786ZM78.6014 97.8674C79.0388 98.2737 79.2682 98.8395 79.2075 99.4164L78.4962 106.004C78.4183 106.731 77.902 107.321 77.2133 107.543L70.9028 109.569C70.2447 109.779 69.5182 109.636 69.0065 109.189L64.1718 104.842C63.725 104.435 63.4838 103.854 63.5202 103.254L63.947 95.9793C63.9796 95.4345 64.2425 94.9231 64.6752 94.5828L78.4836 83.6196C78.9941 83.2193 79.7481 83.2263 80.2493 83.6377L94.7004 95.2794C95.1656 95.659 95.3668 96.2851 95.2257 96.8861L92.6995 107.921C92.534 108.643 91.9685 109.199 91.2478 109.374L85.3376 110.776C84.6596 110.938 83.944 110.770 83.4518 110.327L78.6014 105.986C78.1777 105.602 77.9266 105.041 77.9134 104.448L77.8562 101.756C77.844 101.245 77.6237 100.767 77.2473 100.444C76.8147 100.063 76.1977 99.9285 75.649 100.083L67.8998 102.357C67.2007 102.56 66.4526 102.181 66.2172 101.48L64.0248 95.0677C63.8724 94.6321 63.5835 94.2545 63.193 94.0152C61.4398 92.9005 59.283 92.4013 57.1571 92.6795L45.4716 94.3321C44.946 94.4071 44.4086 94.1014 44.1813 93.6064C43.9566 93.112 44.0655 92.5101 44.4518 92.1457L55.819 81.5727C56.2557 81.144 56.9327 80.9372 57.5756 81.0145L69.0412 82.3129C69.6557 82.3917 70.2476 82.066 70.5015 81.4936C70.7554 80.9209 70.632 80.2235 70.1823 79.7668L64.0434 73.4841C63.6382 73.0817 63.4832 72.4636 63.6257 71.8932L67.0973 58.1428C67.2691 57.4663 67.8541 56.9837 68.5613 56.9138L76.3934 56.1143C77.0607 56.0463 77.7193 56.2814 78.1758 56.7569L81.8326 60.5472C82.2888 61.0223 82.354 61.6895 82.0017 62.2256L78.6014 67.7665C78.2682 68.3151 78.3141 69.0223 78.7214 69.5167L81.4066 72.8854C81.6764 73.2225 82.0876 73.4344 82.5306 73.4659L84.4518 73.6181C84.9462 73.6575 85.398 73.9313 85.6334 74.3628C85.8677 74.7943 85.8501 75.3176 85.5841 75.7338L78.9857 86.4433C78.7272 86.8408 78.7232 87.3624 78.9756 87.7636L81.4066 91.6888C81.6001 92.0096 81.9486 92.2232 82.3352 92.2678L89.7552 93.1453C90.5226 93.2357 91.2352 93.6703 91.6716 94.3662L96.844 102.661C97.1638 103.167 97.2053 103.824 96.9536 104.369L89.7004 119.64C89.4651 120.158 88.9821 120.508 88.4374 120.544L83.3258 120.914C82.6586 120.966 81.9856 120.658 81.5785 120.131L73.2308 109.317C72.8424 108.799 72.5748 108.177 72.4531 107.509L70.7522 98.0193C70.6616 97.5401 70.3738 97.1241 69.9535 96.8703C69.5329 96.6162 69.0272 96.552 68.5572 96.6922L60.4561 99.1797C59.7981 99.3686 59.0552 99.115 58.647 98.5506L54.6884 92.9778C54.2278 92.3605 54.071 91.5588 54.2657 90.8058L56.7831 81.2679C56.9426 80.6852 57.3438 80.1976 57.8854 79.9266L66.7576 75.6095C67.3422 75.3151 67.8472 75.0302 68.2764 74.7571L72.6017 71.5973C73.2454 71.146 74.0533 71.0302 74.7835 71.2825L81.8326 73.7726C82.4432 73.9853 83.0495 74.2672 83.5594 74.6223L93.9684 82.2999C94.5488 82.6991 95.2016 82.9065 95.8758 82.9054L103.981 82.8922C104.513 82.8922 105.034 82.8018 105.523 82.6289C106.014 82.4564 106.46 82.2033 106.84 81.8765L113.096 76.8017C113.466 76.4807 113.866 76.2015 114.291 75.9736C114.716 75.7455 115.163 75.5696 115.626 75.4526C116.094 75.3338 116.571 75.2753 117.046 75.2812C117.52 75.287 117.991 75.3571 118.452 75.4897L120.8 76.2134C121.734 76.4814 122.501 77.1347 122.865 78.0241L126.757 87.8312C127.081 88.6274 127.134 89.486 126.902 90.3095L122.379 105.69C122.229 106.155 121.929 106.566 121.517 106.85L118.563 108.855C117.759 109.375 116.763 109.517 115.843 109.268L108.508 107.393C107.744 107.189 107.061 106.714 106.591 106.054L101.24 98.9736C100.641 98.1093 99.5911 97.5928 98.4555 97.6662L92.0455 97.8986C91.1934 97.9331 90.3582 98.3636 89.8982 99.0846L87.171 103.409C86.6198 104.283 85.7784 104.901 84.7984 105.181L76.1867 107.707C75.587 107.887 74.9597 107.667 74.5735 107.187L64.0429 94.4822C63.6797 94.0312 63.1616 93.787 62.6167 93.8214L58.8693 94.0399C58.0557 94.0745 57.2613 94.279 56.5644 94.6343L48.0085 98.6736C47.4036 98.983 46.7446 99.2254 46.0593 99.3905C45.3703 99.5563 44.6697 99.6438 43.9685 99.653C43.2669 99.6624 42.5701 99.593 41.8928 99.4476C41.2153 99.3021 40.5611 99.0824 39.9492 98.7943L36.7853 97.1847C36.0495 96.8136 35.3603 96.2665 34.7547 95.5656L32.928 93.5628C32.0814 92.6114 31.4297 91.4843 31.0158 90.2725C30.6019 89.0606 30.435 87.7923 30.5261 86.5349L31.3962 73.5318C31.4041 73.222 31.3157 72.9168 31.1411 72.6586L29.526 70.0118C28.9374 69.0395 28.0053 68.377 26.9417 68.1321L21.5716 66.7443C20.4557 66.469 19.3026 66.565 18.2667 67.0174L10.5637 70.2767C9.38194 70.8123 8.45114 71.7776 7.96712 72.9681L1.85001 88.2304C1.36426 89.4215 1.3818 90.7298 1.89893 91.9282L5.18704 100.073C5.63339 101.165 6.347 102.085 7.2157 102.752L20.0683 113.576C20.5266 113.926 21.037 114.1804 21.5781 114.3175L27.515 115.787C28.2811 115.981 29.0882 115.919 29.8186 115.612L38.0828 112.121C38.8164 111.815 39.4861 111.324 40.0152 110.685L44.9051 104.929C45.4825 104.245 46.0918 103.649 46.7191 103.152L53.7436 97.8196C54.3733 97.3183 55.0223 96.8514 55.6825 96.4226L70.4854 86.5402C71.031 86.2066 71.6175 85.9687 72.227 85.8315L83.4543 83.1689C84.3597 82.9503 85.2755 82.8046 86.1957 82.7332C87.116 82.6616 88.037 82.6647 88.9525 82.7412L93.9542 83.1464C94.8366 83.2198 95.7267 83.1432 96.5654 82.9227L104.446 80.8486C105.324 80.6068 106.26 80.7265 107.039 81.1796L113.053 84.8515C113.829 85.3045 114.498 85.9616 114.983 86.7572L122.503 97.4484C122.862 98.0294 123.427 98.5017 124.104 98.8104L133.163 102.838C133.828 103.144 134.549 103.259 135.258 103.167L142.758 102.178C143.562 102.069 144.312 101.766 144.942 101.314L152.66 95.8372C153.262 95.3704 153.807 94.836 154.284 94.2437L156.934 90.7077C157.595 89.8356 158.498 89.177 159.536 88.8324L164.607 87.1883C165.647 86.8427 166.738 86.8225 167.775 87.1316L177.296 89.7816C178.109 90.0126 178.924 89.7995 179.565 89.2894L186.763 83.9765C187.284 83.579 187.881 83.318 188.511 83.2195L194.518 82.2834C195.242 82.1672 195.967 82.2323 196.649 82.4677L200.042 83.6258C200.718 83.854 201.366 84.1868 201.947 84.6133L206.262 87.6146C207.033 88.2022 208.003 88.2575 208.811 87.7615L214.98 84.1586C215.858 83.6175 216.82 83.4973 217.733 83.8128L225.165 86.3758C225.812 86.5967 226.508 86.7111 227.213 86.7111H233.034C233.748 86.7111 234.438 86.572 235.058 86.3033L239.276 84.3352C239.865 84.0826 240.511 83.9327 241.167 83.9021C241.822 83.8715 242.473 83.9613 243.086 84.1657L246.755 85.3769C247.477 85.6266 248.263 85.6613 248.99 85.4775L253.771 84.2748C254.686 84.0402 255.598 84.1082 256.465 84.4702L260.878 86.3398C261.811 86.7422 262.869 86.6888 263.744 86.1957L270.847 82.4011C271.614 81.9692 272.479 81.8573 273.32 82.0788L279.773 83.8512C280.608 84.0733 281.493 83.9803 282.251 83.5855L286.406 81.3725C287.212 80.9465 288.11 80.849 288.979 81.0995L297.153 83.2354C297.978 83.4788 298.839 83.3761 299.573 82.9468L308.279 77.9524C309.015 77.523 309.899 77.4261 310.724 77.6697L318.558 79.8097C319.337 80.038 320.178 80.0133 320.947 79.7386L330.44 76.1503C331.229 75.8713 332.087 75.9456 332.808 76.3543L343.781 82.6308C344.417 83.013 345.175 83.2275 345.955 83.2564L350.433 83.4322C351.21 83.4607 351.981 83.6003 352.732 83.8461L361.593 86.6206C362.407 86.8792 363.201 87.3684 363.883 88.0493L370.705 94.8758C371.469 95.6442 372.484 96.148 373.571 96.3044L379.173 97.1123C379.998 97.239 380.849 96.9986 381.507 96.4691L388.942 90.6815C389.591 90.1554 390.366 89.8601 391.165 89.8235L398.838 89.4682C399.803 89.4231 400.732 89.7373 401.396 90.3405L406.353 95.2886C406.861 95.7896 407.514 96.0995 408.206 96.1754L417.642 97.1714C418.56 97.2633 419.5 97.024 420.231 96.4973L427.418 91.5441C428.149 91.0168 429.065 90.7485 429.993 90.7872L440.308 91.2415C441.14 91.2777 441.942 91.5431 442.573 92.0166L450.578 97.7415C451.188 98.2041 451.941 98.4142 452.689 98.3394L464.04 97.2439C465.048 97.1418 466.037 97.4905 466.779 98.1971L474.34 104.647C475.091 105.362 476.034 105.723 477.011 105.657L481.479 105.354C482.609 105.277 483.737 105.548 484.688 106.126L490.354 109.564C491.162 110.048 492.083 110.283 492.993 110.227L503.079 109.609C504.25 109.542 505.427 109.898 506.358 110.592L516.239 118.233C517.165 118.925 518.318 119.188 519.468 118.961L528.512 117.051C529.573 116.848 530.681 116.862 531.723 117.092L545.146 119.961C546.123 120.166 547.079 120.472 548 120.87L564.368 128.349C565.01 128.631 565.717 128.825 566.436 128.916L575.194 129.957C576.231 130.087 577.263 130.431 578.195 130.97L591.644 138.948C592.581 139.488 593.655 139.819 594.741 139.916L604.505 140.745C605.567 140.84 606.623 141.084 607.624 141.472L624.089 147.662C625.09 148.049 626.087 148.365 627.088 148.6L643.52 152.338C644.52 152.573 645.522 152.851 646.523 153.163L659.128 157.073C660.127 157.385 661.124 157.74 662.114 158.128L670.639 161.327C671.623 161.711 672.595 162.154 673.533 162.652L686.578 170.383C687.518 170.882 688.494 171.336 689.473 171.739L702.434 178.664C703.413 179.067 704.407 179.425 705.407 179.733L714.702 182.579C715.712 182.895 716.746 183.15 717.783 183.331L730.627 185.616C731.662 185.8 732.685 186.093 733.661 186.49L749.349 192.268C750.345 192.664 751.317 193.092 752.245 193.564L764.346 199.393C765.281 199.871 766.23 200.294 767.195 200.663L780.257 206.396C781.221 206.764 782.202 207.069 783.195 207.304L799.012 210.97C800.01 211.208 801.012 211.453 802.01 211.729L816.779 215.214C817.786 215.491 818.797 215.791 819.803 216.12L829.177 219.055C830.202 219.408 831.234 219.707 832.275 219.958L839.83 221.906C840.889 222.162 841.951 222.41 843.013 222.654L851.641 224.618C852.722 224.872 853.807 225.126 854.888 225.379L865.246 227.97C866.322 228.224 867.394 228.499 868.463 228.783L881.316 231.948C882.373 232.236 883.429 232.533 884.482 232.846L890.91 234.875C891.966 235.187 893.02 235.5 894.071 235.815L905.107 239.177C906.143 239.518 907.173 239.873 908.197 240.241L916.963 243.368C917.95 243.738 918.928 244.154 919.884 244.615L929.602 249.496C930.542 249.953 931.494 250.417 932.448 250.892L941.147 255.28C942.104 255.763 943.069 256.216 944.03 256.696L950.712 260.116C951.688 260.602 952.663 261.071 953.64 261.542L958.272 264.16C959.259 264.638 960.248 265.098 961.24 265.553L967.671 268.763C968.674 269.223 969.683 269.682 970.701 270.152L979.215 273.892C980.235 274.365 981.263 274.802 982.296 275.223L990.708 278.913C991.756 279.361 992.804 279.817 993.857 280.284L1004.383 285.351C1005.451 285.827 1006.527 286.32 1007.602 286.833L1013.5 289.881C1014.585 290.417 1015.668 290.947 1016.755 291.488L1027.11 296.7C1028.203 297.244 1029.308 297.772 1030.408 298.32L1039.94 303.227C1041.054 303.785 1042.157 304.367 1043.27 304.956L1051.56 308.865C1052.686 309.466 1053.811 310.076 1054.939 310.685L1066.83 316.536C1067.962 317.139 1069.094 317.745 1070.226 318.35L1077.92 322.209C1079.061 322.829 1080.201 323.451 1081.345 324.068L1089.86 328.217C1091.015 328.841 1092.174 329.455 1093.334 330.07L1101.58 334.293C1102.741 334.91 1103.902 335.527 1105.065 336.145L1112.68 339.563C1113.85 340.187 1115.023 340.804 1116.198 341.421L1125.92 345.543C1127.104 346.167 1128.288 346.791 1129.474 347.414L1139.05 351.344C1140.243 351.968 1141.437 352.591 1142.632 353.215L1152.89 356.885C1154.093 357.508 1155.299 358.132 1156.506 358.755L1168.35 363.011C1169.561 363.633 1170.774 364.255 1171.987 364.877L1179.67 368.215C1180.887 368.838 1182.105 369.461 1183.323 370.084L1190.32 373.355C1191.542 373.98 1192.764 374.604 1193.987 375.228L1201.5 378.43C1202.726 379.055 1203.953 379.68 1205.18 380.304L1207.42 381.313L1210.64 382.798L1212.82 383.812L1215.15 384.896L1217.01 385.706L1219.42 386.868L1221.7 387.854L1223.88 388.828L1226.3 390.019L1228.58 391.005L1231 391.977L1233.28 392.96L1235.46 393.933L1237.88 395.11L1240.16 396.09L1242.54 397.065L1244.94 398.043L1247.2 399.017L1249.68 400.184L1251.96 401.155L1254.42 402.316L1256.74 403.281L1259.18 404.432L1261.46 405.392L1263.96 406.55L1266.26 407.514L1268.78 408.662L1271.08 409.625L1273.6 410.772L1275.88 411.733L1278.32 412.883L1280.64 413.844L1283.08 414.994L1285.36 415.952L1287.86 417.103L1290.14 418.061L1292.6 419.21L1294.88 420.166L1297.34 421.314L1299.64 422.273L1302.1 423.419L1304.38 424.375L1306.82 425.521L1309.1 426.477L1311.54 427.622L1313.82 428.577L1316.24 429.72L1318.54 430.676L1321 431.816L1323.3 432.768L1325.76 433.905L1328.04 434.854L1330.44 435.989L1332.74 436.938L1335.14 438.072L1337.46 439.018L1339.86 440.151L1342.16 441.096L1344.56 442.228L1346.88 443.171L1349.28 444.302L1351.6 445.245L1354 446.376L1356.3 447.319L1358.7 448.45L1361 449.393L1363.36 450.517L1365.68 451.458L1368.08 452.588L1370.4 453.529L1372.8 454.659L1375.14 455.598L1377.54 456.728L1379.86 457.667L1382.26 458.796L1384.56 459.735L1386.96 460.863L1389.3 461.8L1391.68 462.926L1394.02 463.861L1396.42 464.985L1398.76 465.92L1401.16 467.043L1403.46 467.976L1405.86 469.098L1408.2 470.031L1410.6 471.153L1412.9 472.085L1415.34 473.206L1417.66 474.138L1420.06 475.259L1422.38 476.189L1424.78 477.309L1427.1 478.239L1429.5 479.358L1431.84 480.288L1434.22 481.406L1436.56 482.335L1438.94 483.452L1441.28 484.381L1443.66 485.497L1446 486.425L1448.38 487.541L1450.72 488.469L1453.06 489.393L1455.44 490.509L1457.78 491.437L1460.16 492.554L1462.5 493.482L1464.86 494.598L1467.22 495.714L1469.56 496.642L1471.92 497.758L1474.28 498.874L1476.62 499.803L1479 500.919L1481.34 502.034L1483.7 503.148L1486.06 504.263L1488.4 505.181L1490.76 506.296L1493.1 507.41L1495.44 508.528L1497.82 509.643L1500.16 510.758L1502.5 511.873L1504.86 512.991L1507.2 514.106L1509.54 515.222L1511.9 516.337L1514.26 517.452L1516.6 518.567L1518.94 519.683L1521.28 520.797L1523.64 521.913L1525.98 523.028L1528.32 524.144L1530.66 525.258L1533 526.373L1535.36 527.488L1537.7 528.604L1540.04 529.718L1542.4 530.834L1544.74 531.948L1547.08 533.064L1549.44 534.179L1551.78 535.295L1554.12 536.409L1556.46 537.525L1558.8 538.639L1561.16 539.754L1563.5 540.87L1565.84 541.984L1568.2 543.099L1570.54 544.213L1572.88 545.329L1575.22 546.443L1577.56 547.558L1579.9 548.673L1582.26 549.787L1584.6 550.902L1586.94 552.017L1589.28 553.133L1591.62 554.247L1593.98 555.362L1596.32 556.477L1598.66 557.591L1601 558.706L1603.36 559.82L1605.7 560.935L1608.04 " fill="url(#paint0_linear_1822_1963)"/>

  <defs>
<linearGradient id="paint0_linear_1822_1963" x1="18.5077" y1="14.959" x2="70.7991" y2="67.7502" gradientUnits="userSpaceOnUse">
<stop stop-color="#0098D7"/>
<stop offset="1" stop-color="#3FAB3C"/>
</linearGradient>
<clipPath id="clip0_1822_1963">
<rect width="260" height="80.0978" fill="white"/>
</clipPath>
</defs>
</svg>

